<svg viewBox="0 0 600 800" xmlns="http://www.w3.org/2000/svg" style="background:#fafafa">
  <defs>
    <pattern id="grid" width="20" height="20" patternUnits="userSpaceOnUse">
      <path d="M 20 0 L 0 0 0 20" fill="none" stroke="#e5e7eb" stroke-width="0.5"/>
    </pattern>
  </defs>
  <rect width="600" height="800" fill="url(#grid)"/>
  <text x="30" y="40" font-family="JetBrains Mono, monospace" font-size="11" fill="#6b7280" letter-spacing="2">STM25TT-021 · Track Top Lilac · APPROVED</text>
  <rect x="540" y="20" width="40" height="24" rx="4" fill="#1f2937"/><text x="560" y="36" font-family="Inter, sans-serif" font-size="11" font-weight="700" fill="#fff" text-anchor="middle">A</text>
  
  <path d="M 220 210 L 180 235 L 175 290 L 215 295 L 215 580 L 385 580 L 385 295 L 425 290 L 420 235 L 380 210 L 365 195 L 235 195 Z" fill="#C7B8E0" stroke="#5B21B6" stroke-width="1.5"/>
  <ellipse cx="300" cy="207" rx="30" ry="10" fill="#A78BD9"/>
  <path d="M 180 235 L 155 380 L 200 405 L 215 320 Z" fill="#C7B8E0" stroke="#5B21B6" stroke-width="1.5"/>
  <path d="M 420 235 L 445 380 L 400 405 L 385 320 Z" fill="#C7B8E0" stroke="#5B21B6" stroke-width="1.5"/>
  <line x1="220" y1="500" x2="380" y2="500" stroke="#A78BD9" stroke-width="3"/>
  <line x1="155" y1="395" x2="200" y2="400" stroke="#5B21B6" stroke-width="2.5"/>
  <line x1="400" y1="400" x2="445" y2="395" stroke="#5B21B6" stroke-width="2.5"/>

  <circle cx="480" cy="700" r="9" fill="#C7B8E0" stroke="#374151" stroke-width="0.5"/><circle cx="480" cy="722" r="9" fill="#5B21B6" stroke="#374151" stroke-width="0.5"/>
  <text x="30" y="780" font-family="JetBrains Mono, monospace" font-size="9" fill="#9ca3af">CAD · v3 · SS26</text>
</svg>