<svg viewBox="0 0 600 800" xmlns="http://www.w3.org/2000/svg" style="background:#fafafa">
  <defs>
    <pattern id="grid" width="20" height="20" patternUnits="userSpaceOnUse">
      <path d="M 20 0 L 0 0 0 20" fill="none" stroke="#e5e7eb" stroke-width="0.5"/>
    </pattern>
  </defs>
  <rect width="600" height="800" fill="url(#grid)"/>
  <text x="30" y="40" font-family="JetBrains Mono, monospace" font-size="11" fill="#6b7280" letter-spacing="2">STM26TT-002 · Track Top Mono · v2</text>
  <rect x="540" y="20" width="40" height="24" rx="4" fill="#1f2937"/><text x="560" y="36" font-family="Inter, sans-serif" font-size="11" font-weight="700" fill="#fff" text-anchor="middle">A</text>
  
  <path d="M 220 210
           L 180 235 L 175 290
           L 195 295 L 215 285
           L 215 580 L 385 580
           L 385 285 L 405 295
           L 425 290 L 420 235
           L 380 210
           L 365 195 L 235 195 Z"
        fill="#111827" stroke="#0f172a" stroke-width="2"/>
  <ellipse cx="300" cy="207" rx="32" ry="11" fill="#0f172a"/>
  <path d="M 180 235 L 155 380 L 200 405 L 215 320 Z" fill="#111827" stroke="#0f172a" stroke-width="2"/>
  <path d="M 420 235 L 445 380 L 400 405 L 385 320 Z" fill="#111827" stroke="#0f172a" stroke-width="2"/>
  <!-- subtle tonal stripe (charcoal on black) -->
  <line x1="215" y1="500" x2="385" y2="500" stroke="#1f2937" stroke-width="3"/>
  <line x1="215" y1="510" x2="385" y2="510" stroke="#1f2937" stroke-width="1"/>
  <!-- signature: cuff stripe + collar piping -->
  <line x1="155" y1="395" x2="200" y2="400" stroke="#374151" stroke-width="3"/>
  <line x1="400" y1="400" x2="445" y2="395" stroke="#374151" stroke-width="3"/>
  <line x1="268" y1="195" x2="332" y2="195" stroke="#374151" stroke-width="2"/>
  <line x1="300" y1="220" x2="300" y2="580" stroke="#1f2937" stroke-width="1"/>

  <circle cx="480" cy="700" r="9" fill="#111827" stroke="#374151" stroke-width="0.5"/><circle cx="480" cy="722" r="9" fill="#1F2937" stroke="#374151" stroke-width="0.5"/><circle cx="480" cy="744" r="9" fill="#374151" stroke="#374151" stroke-width="0.5"/>
  <text x="30" y="780" font-family="JetBrains Mono, monospace" font-size="9" fill="#9ca3af">CAD · v3 · SS26</text>
</svg>