<svg viewBox="0 0 600 800" xmlns="http://www.w3.org/2000/svg" style="background:#fafafa">
  <defs>
    <pattern id="grid" width="20" height="20" patternUnits="userSpaceOnUse">
      <path d="M 20 0 L 0 0 0 20" fill="none" stroke="#e5e7eb" stroke-width="0.5"/>
    </pattern>
  </defs>
  <rect width="600" height="800" fill="url(#grid)"/>
  <text x="30" y="40" font-family="JetBrains Mono, monospace" font-size="11" fill="#6b7280" letter-spacing="2">STW26PL-004 · Womens Polo Refined · v1</text>
  <rect x="540" y="20" width="40" height="24" rx="4" fill="#1f2937"/><text x="560" y="36" font-family="Inter, sans-serif" font-size="11" font-weight="700" fill="#fff" text-anchor="middle">B</text>
  
  <!-- polo body -->
  <path d="M 230 240
           L 195 270 L 195 310
           L 215 305 L 225 295
           L 220 530 L 380 530
           L 380 295 L 390 305
           L 405 310 L 405 270
           L 370 240
           L 350 220 L 250 220 Z"
        fill="#E8DCC4" stroke="#92400e" stroke-width="1.5"/>
  <!-- collar -->
  <path d="M 270 220 L 300 250 L 330 220 Z" fill="#D6C5A1" stroke="#92400e" stroke-width="1.5"/>
  <!-- sleeves -->
  <path d="M 195 270 L 170 360 L 210 380 L 225 310 Z" fill="#E8DCC4" stroke="#92400e" stroke-width="1.5"/>
  <path d="M 405 270 L 430 360 L 390 380 L 375 310 Z" fill="#E8DCC4" stroke="#92400e" stroke-width="1.5"/>
  <!-- placket buttons -->
  <line x1="300" y1="250" x2="300" y2="320" stroke="#92400e" stroke-width="1"/>
  <circle cx="300" cy="270" r="2.5" fill="#92400e"/>
  <circle cx="300" cy="290" r="2.5" fill="#92400e"/>
  <!-- signature: cuff bands (only 1 cue visible — borderline) -->
  <line x1="170" y1="365" x2="210" y2="380" stroke="#92400e" stroke-width="2"/>
  <line x1="390" y1="380" x2="430" y2="365" stroke="#92400e" stroke-width="2"/>

  <circle cx="480" cy="700" r="9" fill="#E8DCC4" stroke="#374151" stroke-width="0.5"/><circle cx="480" cy="722" r="9" fill="#D6C5A1" stroke="#374151" stroke-width="0.5"/><circle cx="480" cy="744" r="9" fill="#92400e" stroke="#374151" stroke-width="0.5"/>
  <text x="30" y="780" font-family="JetBrains Mono, monospace" font-size="9" fill="#9ca3af">CAD · v3 · SS26</text>
</svg>