<svg width="185" height="32" viewBox="0 0 185 32" fill="none" xmlns="http://www.w3.org/2000/svg">
<g clip-path="url(#clip0_2397_15987)">
<path d="M48.0391 16.3832L44.727 15.7242C43.3204 15.4533 42.5775 14.7409 42.5775 13.6638C42.5775 12.3968 43.6672 11.5778 45.3565 11.5778C47.0457 11.5778 48.1504 12.3371 48.2896 13.7171H51.5075C51.212 10.6201 49.0389 8.98633 45.2216 8.98633C41.9202 8.98633 39.4302 11.0958 39.4302 13.8899C39.4302 16.2147 40.9803 18.0064 43.3803 18.4522L46.5575 19.0451C47.8079 19.2755 48.3645 19.9239 48.3645 21.1524C48.3645 22.5431 47.2298 23.4432 45.4721 23.4432C43.7143 23.4432 42.2756 22.3767 42.2156 21.0053H39.0234C39.214 24.0745 41.7275 26.0538 45.4507 26.0538C47.1956 26.0538 48.7692 25.5398 49.8782 24.6035C50.9765 23.6778 51.5824 22.3788 51.5824 20.9455C51.5824 18.4884 50.2914 16.8269 48.0412 16.3832H48.0391Z" fill="#0a1832"/>
<path d="M88.1317 9.09961C87.1405 9.09961 86.3633 9.86319 86.3633 10.8379C86.3633 11.8127 87.1576 12.5762 88.1317 12.5762C89.1059 12.5762 89.9237 11.7956 89.9237 10.8379C89.9237 9.88025 89.1359 9.09961 88.1317 9.09961Z" fill="#0a1832"/>
<path d="M89.5549 14.1074H86.7031V25.7126H89.5549V14.1074Z" fill="#0a1832"/>
<path d="M134.016 16.4019C135.451 16.4019 136.344 17.093 136.603 18.4047H139.574C139.328 15.6127 137.112 13.7422 134.042 13.7422C130.471 13.7422 127.977 16.2739 127.977 19.8999C127.977 23.5258 130.471 26.0533 134.042 26.0533C137.112 26.0533 139.328 24.1828 139.574 21.3929H136.603C136.339 22.7025 135.446 23.3936 134.016 23.3936C132.485 23.3936 130.94 22.3122 130.94 19.8978C130.94 17.7734 132.147 16.4019 134.016 16.4019Z" fill="#0a1832"/>
<path d="M146.188 16.4019C147.644 16.4019 148.513 17.0759 148.774 18.4047H151.746C151.5 15.6127 149.284 13.7422 146.212 13.7422C142.643 13.7422 140.148 16.2739 140.148 19.8999C140.148 23.5258 142.641 26.0533 146.212 26.0533C149.284 26.0533 151.5 24.1828 151.746 21.3929H148.774C148.513 22.7025 147.618 23.3936 146.188 23.3936C144.657 23.3936 143.114 22.3122 143.114 19.8978C143.114 17.7734 144.321 16.4019 146.188 16.4019Z" fill="#0a1832"/>
<path d="M158.913 13.7669C157.524 13.7669 156.395 14.2276 155.738 15.0637L155.633 15.1981V9.32617H152.781V25.7112H155.633V19.3956C155.633 17.4355 156.596 16.3541 158.344 16.3541C159.9 16.3541 160.596 17.2158 160.596 19.1461V25.7112H163.448V18.3505C163.448 15.3943 161.838 13.7648 158.915 13.7648L158.913 13.7669Z" fill="#0a1832"/>
<path d="M167.781 14.1074H164.93V25.7126H167.781V14.1074Z" fill="#0a1832"/>
<path d="M166.357 9.09961C165.365 9.09961 164.586 9.86319 164.586 10.8379C164.586 11.8127 165.38 12.5762 166.357 12.5762C167.333 12.5762 168.149 11.7956 168.149 10.8379C168.149 9.88025 167.361 9.09961 166.357 9.09961Z" fill="#0a1832"/>
<path d="M175.517 13.7656C174.061 13.7656 172.862 14.2967 172.228 15.2203L172.119 15.3781V14.1069H169.383V25.712H172.235V19.3965C172.235 17.4364 173.198 16.355 174.945 16.355C176.502 16.355 177.197 17.2167 177.197 19.1469V25.712H180.049V18.3514C180.049 15.3952 178.439 13.7656 175.517 13.7656Z" fill="#0a1832"/>
<path d="M182.958 12.5782C183.945 12.5782 184.75 11.7976 184.75 10.8399C184.75 9.88221 183.964 9.10156 182.958 9.10156C181.952 9.10156 181.188 9.86514 181.188 10.8399C181.188 11.8146 181.982 12.5782 182.958 12.5782Z" fill="#0a1832"/>
<path d="M184.387 14.1074H181.535V25.7126H184.387V14.1074Z" fill="#0a1832"/>
<path d="M68.5803 15.6L68.469 15.8112V14.107H65.6172V25.7143H68.469V20.4908C68.469 17.8012 69.5673 16.4937 71.8282 16.4937C72.2114 16.4937 72.6075 16.579 73.0036 16.7496V14.0366C72.6096 13.9171 72.2028 13.8574 71.796 13.8574C70.2524 13.8574 69.2012 14.4269 68.5803 15.6021V15.6Z" fill="#0a1832"/>
<path d="M58.3582 13.7656C54.7443 13.7656 52.3164 16.2206 52.3164 19.8764C52.3164 23.5322 54.8492 26.0554 58.4739 26.0554C61.1415 26.0554 63.2397 24.7224 64.1004 22.4849H61.1308C60.8739 22.8177 60.1353 23.5322 58.4953 23.5322C56.7033 23.5322 55.5386 22.5596 55.3759 20.9301L55.3694 20.8661H64.4258C64.505 17.8885 63.5223 16.2355 62.6809 15.3696C61.6468 14.3052 60.1909 13.7678 58.3604 13.7678L58.3582 13.7656ZM55.4101 18.6244C55.5236 17.1228 56.6669 16.1438 58.3347 16.1438C60.0025 16.1438 61.2143 17.1676 61.2828 18.6244H55.4101Z" fill="#0a1832"/>
<path d="M82.1587 15.12L82.0538 14.9963C81.3301 14.1431 80.2725 13.7656 78.6261 13.7656C75.588 13.7656 73.3828 16.0862 73.3828 19.2835C73.3828 22.4807 75.5773 24.8013 78.6025 24.8013C80.2339 24.8013 81.283 24.4216 82.0088 23.5706L82.1137 23.4469V24.2915C82.1137 26.1941 81.1439 27.0814 79.0607 27.0814C77.7483 27.0814 76.7334 26.5332 76.5664 25.7398H73.5969C73.7917 27.9388 76.0098 29.4681 79.0157 29.4681C82.7967 29.4681 84.9655 27.6317 84.9655 24.428V14.1751H82.1587V15.12ZM79.2898 22.3804C77.5299 22.3804 76.4102 21.1284 76.4102 19.2835C76.4102 17.4385 77.5299 16.1651 79.2898 16.1651C81.0497 16.1651 82.1694 17.4406 82.1694 19.2835C82.1694 21.1263 81.0497 22.3804 79.2898 22.3804Z" fill="#0a1832"/>
<path d="M96.9563 13.7656C93.3616 13.7656 90.7539 16.3443 90.7539 19.8999C90.7539 23.4554 93.3616 26.0533 96.9563 26.0533C100.551 26.0533 103.159 23.464 103.159 19.8999C103.159 16.3358 100.551 13.7656 96.9563 13.7656ZM100.071 19.8999C100.071 22.2482 98.5064 23.2997 96.9563 23.2997C94.8046 23.2997 93.8391 21.5913 93.8391 19.8999C93.8391 18.2085 94.8046 16.4979 96.9563 16.4979C98.5085 16.4979 100.071 17.5494 100.071 19.8999Z" fill="#0a1832"/>
<path d="M127.063 18.4644C127.063 15.1712 125.633 13.7656 122.281 13.7656C119.116 13.7656 117.202 15.1158 117.022 17.4705H119.99C120.122 16.4872 120.947 15.9241 122.259 15.9241C123.501 15.9241 124.214 16.4104 124.214 17.2593C124.214 18.1082 123.497 18.2895 122.955 18.3876L120.623 18.8206C118.885 19.1363 116.812 20.047 116.812 22.5852C116.812 24.5965 118.545 26.0554 120.934 26.0554C122.929 26.0554 123.835 25.2705 124.199 24.8034L124.295 24.6797L124.304 24.8375C124.327 25.2599 124.4 25.5563 124.449 25.7142H127.432C127.179 24.9399 127.063 24.3171 127.063 23.7028V18.4666V18.4644ZM124.154 21.2863C124.154 22.9265 123.011 23.7007 121.617 23.7007C120.589 23.7007 119.836 23.1995 119.836 22.3804C119.836 21.5166 120.431 21.0836 121.392 20.9002L122.717 20.6506C123.608 20.4694 123.906 20.3542 124.156 20.1729V21.2884L124.154 21.2863Z" fill="#0a1832"/>
<path d="M118.567 9.32812H105.387V12.1692H110.459V25.7131H113.54V12.1692H118.567V9.32812Z" fill="#0a1832"/>
<path d="M32.8476 15.1784C32.7662 13.5638 32.4408 11.9705 31.8777 10.4604C31.8777 10.4604 31.8777 10.4562 31.8777 10.454H5.49227C6.50709 5.75523 10.9989 1.9288 16.3171 1.7731C19.2545 1.64512 22.0891 2.55587 24.0374 4.25367C25.3306 5.26893 26.3989 6.54014 27.1675 7.99905H30.7216C29.9444 6.65959 28.9702 5.4353 27.8419 4.37098C18.5908 -4.30355 3.33844 0.60853 1.00478 13.1586C0.833498 14.0949 0.752141 15.0462 0.75 15.9975L14.0348 15.9911V26.8326H19.5863V15.9911H28.5099C28.5742 20.1545 27.3024 24.6848 24.6797 27.2165C24.6797 27.2165 24.679 27.2173 24.6776 27.2187C21.0465 31.2328 12.5746 31.2328 8.94353 27.2187C6.83038 25.1028 5.60574 22.0229 5.23535 18.4546H0.936265C1.33235 21.0375 2.37714 23.5074 3.94862 25.5955C12.0201 36.2558 28.8525 33.0671 32.3551 20.0414C32.7641 18.4588 32.9353 16.8101 32.8476 15.1784ZM28.5078 14.3828H17.972V25.1754H15.6426V14.3828H5.10903C5.10047 13.6449 5.13901 12.6787 5.18825 12.0793H28.4307C28.4821 12.6531 28.5249 13.8453 28.5078 14.3828Z" fill="#0a1832"/>
</g>
<defs>
<clipPath id="clip0_2397_15987">
<rect width="184" height="32" fill="#0a1832" transform="translate(0.75)"/>
</clipPath>
</defs>
</svg>
