<svg width="33" height="32" viewBox="0 0 33 32" fill="none" xmlns="http://www.w3.org/2000/svg">
<path d="M32.0976 15.1784C32.0162 13.5638 31.6908 11.9705 31.1277 10.4604C31.1277 10.4604 31.1277 10.4562 31.1277 10.454H4.74227C5.75709 5.75523 10.2489 1.9288 15.5671 1.7731C18.5045 1.64512 21.3391 2.55587 23.2874 4.25367C24.5806 5.26893 25.6489 6.54014 26.4175 7.99905H29.9716C29.1944 6.65959 28.2202 5.4353 27.0919 4.37098C17.8408 -4.30355 2.58844 0.60853 0.25478 13.1586C0.0834976 14.0949 0.0021407 15.0462 0 15.9975L13.2848 15.9911V26.8326H18.8363V15.9911H27.7599C27.8242 20.1545 26.5524 24.6848 23.9297 27.2165C23.9297 27.2165 23.929 27.2173 23.9276 27.2187C20.2965 31.2328 11.8246 31.2328 8.19353 27.2187C6.08038 25.1028 4.85574 22.0229 4.48535 18.4546H0.186265C0.582349 21.0375 1.62714 23.5074 3.19862 25.5955C11.2701 36.2558 28.1025 33.0671 31.6051 20.0414C32.0141 18.4588 32.1853 16.8101 32.0976 15.1784ZM27.7578 14.3828H17.222V25.1754H14.8926V14.3828H4.35903C4.35047 13.6449 4.38901 12.6787 4.43825 12.0793H27.6807C27.7321 12.6531 27.7749 13.8453 27.7578 14.3828Z" fill="white"/>
</svg>
